<?xml version="1.0" encoding="utf-8"?>
<!-- Svg Vector Icons : http://www.onlinewebfonts.com/icon -->
<!DOCTYPE svg PUBLIC "-//W3C//DTD SVG 1.1//EN" "http://www.w3.org/Graphics/SVG/1.1/DTD/svg11.dtd">
<svg version="1.1" xmlns="http://www.w3.org/2000/svg" xmlns:xlink="http://www.w3.org/1999/xlink" x="0px" y="0px" viewBox="0 0 1000 1000" enable-background="new 0 0 1000 1000" xml:space="preserve">
<metadata> Svg Vector Icons : http://www.onlinewebfonts.com/icon </metadata>
<g><path fill="#853100" d="M346.9,530.6c-84.4,0-153.1-68.7-153.1-153.1c0-84.5,68.7-153.2,153.1-153.2c84.4,0,153.1,68.7,153.1,153.2C500,461.9,431.3,530.6,346.9,530.6 M346.9,285.6c-50.7,0-91.9,41.3-91.9,91.9s41.2,91.8,91.9,91.8c50.7,0,91.9-41.2,91.9-91.8C438.8,326.9,397.5,285.6,346.9,285.6 M500.4,780.6l-27.2-165.5l-74.8-24.7l19.2-58.2l109.9,36.4l33.1,202L500.4,780.6z M193.4,780.6l-60.5-10l33.2-202L276,532.2l19.2,58.2l-74.8,24.7L193.4,780.6z M622.5,285.6H745v61.3H622.5V285.6z M622.5,408.1h245v61.3h-245V408.1z M622.5,530.6h245v61.3h-245V530.6z M622.5,653.1h245v61.3h-245V653.1z M346.9,836.9h306.3v61.3H346.9V836.9z M990,898.1H714.4v-61.3h214.4V163.1H71.3v673.8h214.4v61.3H10V101.9h980V898.1z"/></g>
</svg>