<?xml version="1.0" encoding="utf-8"?>
<!-- Svg Vector Icons : http://www.onlinewebfonts.com/icon -->
<!DOCTYPE svg PUBLIC "-//W3C//DTD SVG 1.1//EN" "http://www.w3.org/Graphics/SVG/1.1/DTD/svg11.dtd">
<svg version="1.1" xmlns="http://www.w3.org/2000/svg" xmlns:xlink="http://www.w3.org/1999/xlink" x="0px" y="0px" viewBox="0 0 1000 1000" enable-background="new 0 0 1000 1000" xml:space="preserve">
<metadata> Svg Vector Icons : http://www.onlinewebfonts.com/icon </metadata>
<g><g transform="translate(0.000000,511.000000) scale(0.100000,-0.100000)"><path fill="#853100" d="M4634.6,5020.4c-976.2-88.6-1829.2-412.1-2599.4-985.9c-285-213.7-733.6-662.4-947.4-947.4c-512.2-687.4-818.3-1423-953.1-2291.4C88.5,485.8,88.5-242,134.7-552c136.7-880,446.7-1627.1,960.8-2316.4c213.7-283,660.4-735.5,932-941.6c702.8-533.4,1498-862.6,2362.6-978.2c229.1-28.9,1045.6-23.1,1280.5,9.6c1097.5,156,2085.3,664.3,2859.4,1471.1C9265.4-2539.1,9716-1591.8,9875.8-484.6c36.6,261.9,30.8,1005.1-11.6,1280.4c-92.4,602.7-244.5,1076.4-510.3,1588.5c-244.5,471.7-500.6,818.3-895.4,1213.1c-751,749-1661.7,1211.1-2716.9,1376.7C5499.1,5012.7,4848.3,5039.7,4634.6,5020.4z M5404.8,4433.1c1709.8-156,3171.3-1319,3706.6-2948c781.8-2387.6-608.5-4964-3021.1-5589.8c-417.8-107.8-623.8-132.9-1089.8-132.9c-467.9,0-672,25-1097.5,134.8C1694.3-3528.8,300.3-1276,756.6,984.5C1191.8,3152.7,3190.4,4635.3,5404.8,4433.1z"/><path fill="#853100" d="M4301.5,2107.1c-84.7-53.9-1842.7-1813.8-1873.5-1873.5c-30.8-57.8-34.7-202.2-9.6-244.5c11.5-15.4,440.9-452.5,958.9-968.5c591.1-593.1,957-945.4,987.8-951.2c27-5.8,57.8-13.5,71.3-17.3c36.6-11.6,152.1,26.9,204.1,67.4c27,21.2,63.6,78.9,82.8,125.2c63.5,171.4,63.5,171.4-681.6,920.4l-668.2,668.2h2010.2c2222,0,2089.2-7.7,2183.5,123.2c59.7,82.8,59.7,248.4,0,331.2c-92.4,130.9,36.6,123.2-2173.9,123.2H3394.6l637.3,641.2c670.1,673.9,699,708.6,672,847.2C4667.3,2095.6,4451.7,2207.2,4301.5,2107.1z"/></g></g>
</svg>