<?xml version="1.0" encoding="utf-8"?>
<!-- Svg Vector Icons : http://www.onlinewebfonts.com/icon -->
<!DOCTYPE svg PUBLIC "-//W3C//DTD SVG 1.1//EN" "http://www.w3.org/Graphics/SVG/1.1/DTD/svg11.dtd">
<svg version="1.1" xmlns="http://www.w3.org/2000/svg" xmlns:xlink="http://www.w3.org/1999/xlink" x="0px" y="0px" viewBox="0 0 1000 1000" enable-background="new 0 0 1000 1000" xml:space="preserve">
<metadata> Svg Vector Icons : http://www.onlinewebfonts.com/icon </metadata>
<g><g transform="translate(0.000000,512.000000) scale(0.100000,-0.100000)"><path fill="#853100" d="M4304,4996.6c-736-113.1-1391.5-364.2-2006.7-774.3C-58.3,2660.2-612.2-575,1086-2838.5c785.8-1044.6,1931.9-1726.9,3229.5-1916.6c283.7-42.1,1090.6-42.1,1383.8,0c270.2,38.3,734.1,155.3,983.2,247.2c306.7,113.1,745.6,337.3,1023.5,523.2C8911.5-3177.8,9664.7-1960.7,9875.6-483c32.6,226.2,32.6,981.3,0,1207.5c-182.1,1270.7-759,2342.1-1700,3149c-406.3,348.8-989,691.9-1495,877.8c-247.3,90.1-707.2,205.1-981.3,245.3C5425.2,5036.8,4560.8,5036.8,4304,4996.6z M5396.4,4413.9c1286-118.8,2457.1-818.4,3175.8-1897.5c155.2-233.8,391-701.5,475.3-948.7c387.2-1117.4,314.3-2321-201.3-3359.8c-640.2-1286.1-1803.5-2135.1-3229.5-2355.5c-327.8-49.8-962.1-46-1284.1,9.6c-889.3,151.4-1640.6,521.3-2273.1,1121.2C865.6-1886,415.1-143.8,913.5,1422.1C1528.7,3359.8,3384,4597.9,5396.4,4413.9z"/><path fill="#853100" d="M5402.2,2133.2c-82.4-44.1-124.6-97.8-151.4-195.5c-42.2-157.2-32.6-166.7,665.1-860.6L6557.9,437l-1983.7-9.6c-1974.1-9.6-1983.7-9.6-2037.4-49.8c-187.8-139.9-187.8-373.7,0-513.6c53.7-40.2,59.4-40.2,2041.2-46l1985.6-3.8l-634.4-638.2c-350.7-348.8-645.9-661.2-655.5-690c-69-182.1,24.9-366.1,210.8-415.9c161-44.1,141.8-59.4,1148.1,946.8c509.8,511.7,939.1,950.6,952.6,973.7c32.6,61.3,30.7,174.4-5.8,260.7c-34.5,84.3-1711.6,1776.7-1845.7,1864.9C5630.3,2183,5509.5,2188.7,5402.2,2133.2z"/></g></g>
</svg>